<svg width="40" height="40" viewBox="0 0 40 40" fill="none" xmlns="http://www.w3.org/2000/svg">
<g clip-path="url(#clip0_327_473)">
<path d="M20.465 2.78252C20.1665 2.66291 19.8335 2.66291 19.535 2.78252L4.615 8.75002L10.625 11.1525L26.01 5.00002L20.465 2.78252ZM29.375 6.34752L13.99 12.5L20 14.9025L35.385 8.75002L29.375 6.34752ZM37.5 10.5975L21.25 17.0975V36.9025L37.5 30.4025V10.5975ZM18.75 36.905V17.095L2.5 10.5975V30.405L18.75 36.905ZM18.6075 0.460021C19.5014 0.102519 20.4986 0.102519 21.3925 0.460021L39.215 7.59002C39.4467 7.68289 39.6453 7.843 39.7852 8.04975C39.9251 8.25649 39.9999 8.50039 40 8.75002V30.405C39.9997 30.9046 39.8497 31.3926 39.5694 31.8061C39.2891 32.2196 38.8914 32.5397 38.4275 32.725L20.465 39.91C20.1665 40.0296 19.8335 40.0296 19.535 39.91L1.575 32.725C1.11063 32.5401 0.712356 32.2202 0.431605 31.8066C0.150854 31.3931 0.000515823 30.9049 0 30.405L0 8.75002C5.80999e-05 8.50039 0.0748594 8.25649 0.214768 8.04975C0.354676 7.843 0.553282 7.68289 0.785 7.59002L18.6075 0.460021Z" fill="#605B56"/>
</g>
<defs>
<clipPath id="clip0_327_473">
<rect width="40" height="40" fill="white"/>
</clipPath>
</defs>
</svg>
