<svg width="30" height="30" viewBox="0 0 30 30" fill="none" xmlns="http://www.w3.org/2000/svg">
<path d="M0 4.6875C0 4.43886 0.098772 4.2004 0.274587 4.02459C0.450403 3.84877 0.68886 3.75 0.9375 3.75H3.75C3.95912 3.75006 4.16222 3.82003 4.327 3.9488C4.49177 4.07756 4.60877 4.25772 4.65937 4.46062L5.41875 7.5H27.1875C27.3299 7.50004 27.4704 7.53252 27.5984 7.59497C27.7264 7.65743 27.8385 7.74822 27.9261 7.86045C28.0138 7.97268 28.0747 8.10341 28.1043 8.2427C28.1339 8.382 28.1313 8.5262 28.0969 8.66437L25.2844 19.9144C25.2338 20.1173 25.1168 20.2974 24.952 20.4262C24.7872 20.555 24.5841 20.6249 24.375 20.625H7.5C7.29088 20.6249 7.08778 20.555 6.923 20.4262C6.75823 20.2974 6.64123 20.1173 6.59063 19.9144L3.01875 5.625H0.9375C0.68886 5.625 0.450403 5.52623 0.274587 5.35041C0.098772 5.1746 0 4.93614 0 4.6875ZM5.8875 9.375L6.825 13.125H9.375V9.375H5.8875ZM11.25 9.375V13.125H15V9.375H11.25ZM16.875 9.375V13.125H20.625V9.375H16.875ZM22.5 9.375V13.125H25.05L25.9875 9.375H22.5ZM24.5812 15H22.5V18.75H23.6437L24.5812 15ZM20.625 15H16.875V18.75H20.625V15ZM15 15H11.25V18.75H15V15ZM9.375 15H7.29375L8.23125 18.75H9.375V15ZM9.375 24.375C8.87772 24.375 8.40081 24.5725 8.04918 24.9242C7.69754 25.2758 7.5 25.7527 7.5 26.25C7.5 26.7473 7.69754 27.2242 8.04918 27.5758C8.40081 27.9275 8.87772 28.125 9.375 28.125C9.87228 28.125 10.3492 27.9275 10.7008 27.5758C11.0525 27.2242 11.25 26.7473 11.25 26.25C11.25 25.7527 11.0525 25.2758 10.7008 24.9242C10.3492 24.5725 9.87228 24.375 9.375 24.375ZM5.625 26.25C5.625 25.2554 6.02009 24.3016 6.72335 23.5984C7.42661 22.8951 8.38044 22.5 9.375 22.5C10.3696 22.5 11.3234 22.8951 12.0267 23.5984C12.7299 24.3016 13.125 25.2554 13.125 26.25C13.125 27.2446 12.7299 28.1984 12.0267 28.9016C11.3234 29.6049 10.3696 30 9.375 30C8.38044 30 7.42661 29.6049 6.72335 28.9016C6.02009 28.1984 5.625 27.2446 5.625 26.25ZM22.5 24.375C22.0027 24.375 21.5258 24.5725 21.1742 24.9242C20.8225 25.2758 20.625 25.7527 20.625 26.25C20.625 26.7473 20.8225 27.2242 21.1742 27.5758C21.5258 27.9275 22.0027 28.125 22.5 28.125C22.9973 28.125 23.4742 27.9275 23.8258 27.5758C24.1775 27.2242 24.375 26.7473 24.375 26.25C24.375 25.7527 24.1775 25.2758 23.8258 24.9242C23.4742 24.5725 22.9973 24.375 22.5 24.375ZM18.75 26.25C18.75 25.2554 19.1451 24.3016 19.8484 23.5984C20.5516 22.8951 21.5054 22.5 22.5 22.5C23.4946 22.5 24.4484 22.8951 25.1516 23.5984C25.8549 24.3016 26.25 25.2554 26.25 26.25C26.25 27.2446 25.8549 28.1984 25.1516 28.9016C24.4484 29.6049 23.4946 30 22.5 30C21.5054 30 20.5516 29.6049 19.8484 28.9016C19.1451 28.1984 18.75 27.2446 18.75 26.25Z" fill="#382922"/>
</svg>
