<svg width="21" height="21" viewBox="0 0 21 21" fill="none" xmlns="http://www.w3.org/2000/svg">
<g clip-path="url(#clip0_196_330)">
<path d="M10.4565 0.269531C7.74279 0.269531 7.40154 0.282031 6.33529 0.329531C5.26904 0.379531 4.54279 0.547031 3.90654 0.794531C3.23885 1.04494 2.63422 1.43878 2.13529 1.94828C1.62579 2.44721 1.23195 3.05184 0.981543 3.71953C0.734043 4.35453 0.565293 5.08203 0.516543 6.14453C0.469043 7.21328 0.456543 7.55328 0.456543 10.2708C0.456543 12.9858 0.469043 13.3258 0.516543 14.392C0.566543 15.457 0.734043 16.1833 0.981543 16.8195C1.23779 17.477 1.57904 18.0345 2.13529 18.5908C2.69029 19.147 3.24779 19.4895 3.90529 19.7445C4.54279 19.992 5.26779 20.1608 6.33279 20.2095C7.40029 20.257 7.74029 20.2695 10.4565 20.2695C13.1728 20.2695 13.5115 20.257 14.579 20.2095C15.6428 20.1595 16.3715 19.992 17.0078 19.7445C17.675 19.494 18.2792 19.1001 18.7778 18.5908C19.334 18.0345 19.6753 17.477 19.9315 16.8195C20.1778 16.1833 20.3465 15.457 20.3965 14.392C20.444 13.3258 20.4565 12.9858 20.4565 10.2695C20.4565 7.55328 20.444 7.21328 20.3965 6.14578C20.3465 5.08203 20.1778 4.35453 19.9315 3.71953C19.6811 3.05184 19.2873 2.44721 18.7778 1.94828C18.2789 1.43878 17.6742 1.04494 17.0065 0.794531C16.369 0.547031 15.6415 0.378281 14.5778 0.329531C13.5103 0.282031 13.1715 0.269531 10.454 0.269531H10.4565ZM9.56029 2.07203H10.4578C13.1278 2.07203 13.444 2.08078 14.4978 2.12953C15.4728 2.17328 16.0028 2.33703 16.3553 2.47328C16.8215 2.65453 17.1553 2.87203 17.5053 3.22203C17.8553 3.57203 18.0715 3.90453 18.2528 4.37203C18.3903 4.72328 18.5528 5.25328 18.5965 6.22828C18.6453 7.28203 18.6553 7.59828 18.6553 10.267C18.6553 12.9358 18.6453 13.2533 18.5965 14.307C18.5528 15.282 18.389 15.8108 18.2528 16.1633C18.0913 16.5969 17.8356 16.9893 17.504 17.312C17.154 17.662 16.8215 17.8783 16.354 18.0595C16.004 18.197 15.474 18.3595 14.4978 18.4045C13.444 18.452 13.1278 18.4633 10.4578 18.4633C7.78779 18.4633 7.47029 18.452 6.41654 18.4045C5.44154 18.3595 4.91279 18.197 4.56029 18.0595C4.12633 17.8986 3.73354 17.6433 3.41029 17.312C3.07814 16.989 2.82195 16.5962 2.66029 16.162C2.52404 15.8108 2.36029 15.2808 2.31654 14.3058C2.26904 13.252 2.25904 12.9358 2.25904 10.2645C2.25904 7.59328 2.26904 7.27953 2.31654 6.22578C2.36154 5.25078 2.52404 4.72078 2.66154 4.36828C2.84279 3.90203 3.06029 3.56828 3.41029 3.21828C3.76029 2.86828 4.09279 2.65203 4.56029 2.47078C4.91279 2.33328 5.44154 2.17078 6.41654 2.12578C7.33904 2.08328 7.69654 2.07078 9.56029 2.06953V2.07203ZM15.7953 3.73203C15.6377 3.73203 15.4817 3.76307 15.3361 3.82338C15.1905 3.88368 15.0582 3.97207 14.9468 4.0835C14.8353 4.19493 14.7469 4.32722 14.6866 4.47281C14.6263 4.6184 14.5953 4.77445 14.5953 4.93203C14.5953 5.08962 14.6263 5.24566 14.6866 5.39125C14.7469 5.53684 14.8353 5.66913 14.9468 5.78056C15.0582 5.89199 15.1905 5.98038 15.3361 6.04069C15.4817 6.10099 15.6377 6.13203 15.7953 6.13203C16.1136 6.13203 16.4188 6.0056 16.6438 5.78056C16.8689 5.55552 16.9953 5.25029 16.9953 4.93203C16.9953 4.61377 16.8689 4.30855 16.6438 4.0835C16.4188 3.85846 16.1136 3.73203 15.7953 3.73203ZM10.4578 5.13453C9.77663 5.1239 9.10016 5.24889 8.46777 5.50221C7.83537 5.75553 7.25969 6.13212 6.77423 6.61006C6.28878 7.088 5.90325 7.65774 5.64009 8.28611C5.37694 8.91447 5.24142 9.58891 5.24142 10.2702C5.24142 10.9514 5.37694 11.6258 5.64009 12.2542C5.90325 12.8826 6.28878 13.4523 6.77423 13.9303C7.25969 14.4082 7.83537 14.7848 8.46777 15.0381C9.10016 15.2914 9.77663 15.4164 10.4578 15.4058C11.806 15.3847 13.0918 14.8344 14.0378 13.8736C14.9837 12.9128 15.5139 11.6185 15.5139 10.2702C15.5139 8.92182 14.9837 7.62755 14.0378 6.66672C13.0918 5.70589 11.806 5.15557 10.4578 5.13453ZM10.4578 6.93578C10.8956 6.93578 11.3291 7.02201 11.7336 7.18955C12.138 7.35708 12.5055 7.60265 12.8151 7.91221C13.1247 8.22178 13.3702 8.58929 13.5378 8.99376C13.7053 9.39823 13.7915 9.83174 13.7915 10.2695C13.7915 10.7073 13.7053 11.1408 13.5378 11.5453C13.3702 11.9498 13.1247 12.3173 12.8151 12.6268C12.5055 12.9364 12.138 13.182 11.7336 13.3495C11.3291 13.5171 10.8956 13.6033 10.4578 13.6033C9.57363 13.6033 8.72567 13.252 8.10048 12.6268C7.47528 12.0016 7.12404 11.1537 7.12404 10.2695C7.12404 9.38537 7.47528 8.53741 8.10048 7.91221C8.72567 7.28701 9.57363 6.93578 10.4578 6.93578Z" fill="#605B56"/>
</g>
<defs>
<clipPath id="clip0_196_330">
<rect width="20" height="20" fill="white" transform="translate(0.456543 0.269531)"/>
</clipPath>
</defs>
</svg>
