<svg width="20" height="20" viewBox="0 0 20 20" fill="none" xmlns="http://www.w3.org/2000/svg">
<g clip-path="url(#clip0_48_42)">
<path d="M10 0.5C7.28625 0.5 6.945 0.5125 5.87875 0.56C4.8125 0.61 4.08625 0.7775 3.45 1.025C2.78231 1.27541 2.17768 1.66925 1.67875 2.17875C1.16925 2.67768 0.775407 3.28231 0.525 3.95C0.2775 4.585 0.10875 5.3125 0.06 6.375C0.0125 7.44375 0 7.78375 0 10.5013C0 13.2163 0.0125 13.5563 0.06 14.6225C0.11 15.6875 0.2775 16.4137 0.525 17.05C0.78125 17.7075 1.1225 18.265 1.67875 18.8212C2.23375 19.3775 2.79125 19.72 3.44875 19.975C4.08625 20.2225 4.81125 20.3912 5.87625 20.44C6.94375 20.4875 7.28375 20.5 10 20.5C12.7163 20.5 13.055 20.4875 14.1225 20.44C15.1863 20.39 15.915 20.2225 16.5513 19.975C17.2185 19.7244 17.8227 19.3306 18.3212 18.8212C18.8775 18.265 19.2188 17.7075 19.475 17.05C19.7213 16.4137 19.89 15.6875 19.94 14.6225C19.9875 13.5563 20 13.2163 20 10.5C20 7.78375 19.9875 7.44375 19.94 6.37625C19.89 5.3125 19.7213 4.585 19.475 3.95C19.2246 3.28231 18.8308 2.67768 18.3212 2.17875C17.8223 1.66925 17.2177 1.27541 16.55 1.025C15.9125 0.7775 15.185 0.60875 14.1213 0.56C13.0538 0.5125 12.715 0.5 9.9975 0.5H10ZM9.10375 2.3025H10.0013C12.6713 2.3025 12.9875 2.31125 14.0413 2.36C15.0163 2.40375 15.5463 2.5675 15.8988 2.70375C16.365 2.885 16.6987 3.1025 17.0487 3.4525C17.3988 3.8025 17.615 4.135 17.7963 4.6025C17.9338 4.95375 18.0962 5.48375 18.14 6.45875C18.1887 7.5125 18.1987 7.82875 18.1987 10.4975C18.1987 13.1663 18.1887 13.4837 18.14 14.5375C18.0962 15.5125 17.9325 16.0413 17.7963 16.3938C17.6348 16.8274 17.3791 17.2197 17.0475 17.5425C16.6975 17.8925 16.365 18.1088 15.8975 18.29C15.5475 18.4275 15.0175 18.59 14.0413 18.635C12.9875 18.6825 12.6713 18.6938 10.0013 18.6938C7.33125 18.6938 7.01375 18.6825 5.96 18.635C4.985 18.59 4.45625 18.4275 4.10375 18.29C3.66979 18.1291 3.277 17.8738 2.95375 17.5425C2.62159 17.2195 2.36541 16.8267 2.20375 16.3925C2.0675 16.0413 1.90375 15.5113 1.86 14.5363C1.8125 13.4825 1.8025 13.1663 1.8025 10.495C1.8025 7.82375 1.8125 7.51 1.86 6.45625C1.905 5.48125 2.0675 4.95125 2.205 4.59875C2.38625 4.1325 2.60375 3.79875 2.95375 3.44875C3.30375 3.09875 3.63625 2.8825 4.10375 2.70125C4.45625 2.56375 4.985 2.40125 5.96 2.35625C6.8825 2.31375 7.24 2.30125 9.10375 2.3V2.3025ZM15.3387 3.9625C15.1812 3.9625 15.0251 3.99354 14.8795 4.05384C14.7339 4.11415 14.6017 4.20254 14.4902 4.31397C14.3788 4.4254 14.2904 4.55769 14.2301 4.70328C14.1698 4.84887 14.1388 5.00491 14.1388 5.1625C14.1388 5.32009 14.1698 5.47613 14.2301 5.62172C14.2904 5.76731 14.3788 5.8996 14.4902 6.01103C14.6017 6.12246 14.7339 6.21085 14.8795 6.27116C15.0251 6.33146 15.1812 6.3625 15.3387 6.3625C15.657 6.3625 15.9622 6.23607 16.1873 6.01103C16.4123 5.78598 16.5387 5.48076 16.5387 5.1625C16.5387 4.84424 16.4123 4.53902 16.1873 4.31397C15.9622 4.08893 15.657 3.9625 15.3387 3.9625ZM10.0013 5.365C9.32009 5.35437 8.64362 5.47936 8.01122 5.73268C7.37883 5.986 6.80314 6.36259 6.31769 6.84053C5.83223 7.31847 5.4467 7.88821 5.18355 8.51657C4.9204 9.14494 4.78488 9.81938 4.78488 10.5006C4.78488 11.1819 4.9204 11.8563 5.18355 12.4847C5.4467 13.113 5.83223 13.6828 6.31769 14.1607C6.80314 14.6387 7.37883 15.0153 8.01122 15.2686C8.64362 15.5219 9.32009 15.6469 10.0013 15.6363C11.3494 15.6152 12.6353 15.0649 13.5812 14.1041C14.5272 13.1432 15.0574 11.849 15.0574 10.5006C15.0574 9.15228 14.5272 7.85802 13.5812 6.89719C12.6353 5.93636 11.3494 5.38603 10.0013 5.365ZM10.0013 7.16625C10.439 7.16625 10.8726 7.25248 11.277 7.42002C11.6815 7.58755 12.049 7.83312 12.3586 8.14268C12.6681 8.45225 12.9137 8.81976 13.0812 9.22423C13.2488 9.6287 13.335 10.0622 13.335 10.5C13.335 10.9378 13.2488 11.3713 13.0812 11.7758C12.9137 12.1802 12.6681 12.5477 12.3586 12.8573C12.049 13.1669 11.6815 13.4124 11.277 13.58C10.8726 13.7475 10.439 13.8337 10.0013 13.8337C9.11708 13.8337 8.26913 13.4825 7.64393 12.8573C7.01873 12.2321 6.6675 11.3842 6.6675 10.5C6.6675 9.61583 7.01873 8.76788 7.64393 8.14268C8.26913 7.51748 9.11708 7.16625 10.0013 7.16625Z" fill="#382922"/>
</g>
<defs>
<clipPath id="clip0_48_42">
<rect width="20" height="20" fill="white"/>
</clipPath>
</defs>
</svg>
