<svg width="30" height="30" viewBox="0 0 30 30" fill="none" xmlns="http://www.w3.org/2000/svg">
<path d="M15.735 27.24C15.6447 27.347 15.5322 27.4329 15.4052 27.4919C15.2783 27.5509 15.14 27.5814 15 27.5814C14.86 27.5814 14.7217 27.5509 14.5948 27.4919C14.4678 27.4329 14.3553 27.347 14.265 27.24C11.2631 23.6737 8.54625 21.1238 6.30937 19.0256C2.4375 15.39 0 13.1044 0 9.225C0 5.16563 3.35625 1.875 7.5 1.875C10.5 1.875 12.5981 3.84375 13.8825 5.64C14.37 6.32438 14.7413 6.9825 15 7.5C15.3247 6.8525 15.6983 6.2307 16.1175 5.64C17.4019 3.84187 19.5 1.875 22.5 1.875C26.6437 1.875 30 5.16563 30 9.225C30 13.1044 27.5625 15.39 23.6906 19.0256C21.4538 21.1256 18.7369 23.6775 15.735 27.24Z" fill="#8D0202"/>
</svg>
