<svg width="40" height="40" viewBox="0 0 40 40" fill="none" xmlns="http://www.w3.org/2000/svg">
<path fill-rule="evenodd" clip-rule="evenodd" d="M20 25C20.3315 25 20.6495 24.8683 20.8839 24.6339C21.1183 24.3995 21.25 24.0815 21.25 23.75V9.2675L26.615 14.635C26.7312 14.7512 26.8692 14.8434 27.021 14.9063C27.1729 14.9692 27.3356 15.0016 27.5 15.0016C27.6644 15.0016 27.8271 14.9692 27.979 14.9063C28.1308 14.8434 28.2688 14.7512 28.385 14.635C28.5012 14.5188 28.5934 14.3808 28.6563 14.229C28.7192 14.0771 28.7516 13.9144 28.7516 13.75C28.7516 13.5856 28.7192 13.4229 28.6563 13.271C28.5934 13.1192 28.5012 12.9812 28.385 12.865L20.885 5.365C20.7689 5.24859 20.6309 5.15623 20.4791 5.09322C20.3272 5.0302 20.1644 4.99777 20 4.99777C19.8356 4.99777 19.6728 5.0302 19.5209 5.09322C19.3691 5.15623 19.2311 5.24859 19.115 5.365L11.615 12.865C11.3803 13.0997 11.2484 13.4181 11.2484 13.75C11.2484 14.0819 11.3803 14.4003 11.615 14.635C11.8497 14.8697 12.1681 15.0016 12.5 15.0016C12.8319 15.0016 13.1503 14.8697 13.385 14.635L18.75 9.2675V23.75C18.75 24.0815 18.8817 24.3995 19.1161 24.6339C19.3505 24.8683 19.6685 25 20 25ZM2.5 31.25C2.5 30.9185 2.6317 30.6005 2.86612 30.3661C3.10054 30.1317 3.41848 30 3.75 30H36.25C36.5815 30 36.8995 30.1317 37.1339 30.3661C37.3683 30.6005 37.5 30.9185 37.5 31.25C37.5 31.5815 37.3683 31.8995 37.1339 32.1339C36.8995 32.3683 36.5815 32.5 36.25 32.5H3.75C3.41848 32.5 3.10054 32.3683 2.86612 32.1339C2.6317 31.8995 2.5 31.5815 2.5 31.25Z" fill="#605B56"/>
</svg>
