<svg width="30" height="30" viewBox="0 0 30 30" fill="none" xmlns="http://www.w3.org/2000/svg">
<path fill-rule="evenodd" clip-rule="evenodd" d="M11.25 15C11.25 15.2486 11.3488 15.4871 11.5246 15.6629C11.7004 15.8387 11.9389 15.9375 12.1875 15.9375H23.0494L19.0238 19.9613C18.8477 20.1373 18.7488 20.3761 18.7488 20.625C18.7488 20.8739 18.8477 21.1127 19.0238 21.2887C19.1998 21.4648 19.4386 21.5637 19.6875 21.5637C19.9364 21.5637 20.1752 21.4648 20.3513 21.2887L25.9762 15.6637C26.0636 15.5767 26.1329 15.4732 26.1801 15.3593C26.2274 15.2454 26.2517 15.1233 26.2517 15C26.2517 14.8767 26.2274 14.7546 26.1801 14.6407C26.1329 14.5268 26.0636 14.4233 25.9762 14.3363L20.3513 8.71125C20.1752 8.53522 19.9364 8.4363 19.6875 8.4363C19.4386 8.4363 19.1998 8.53522 19.0238 8.71125C18.8477 8.88727 18.7488 9.12607 18.7488 9.375C18.7488 9.62393 18.8477 9.86273 19.0238 10.0387L23.0494 14.0625H12.1875C11.9389 14.0625 11.7004 14.1613 11.5246 14.3371C11.3488 14.5129 11.25 14.7514 11.25 15ZM6.5625 28.125C6.31386 28.125 6.0754 28.0262 5.89959 27.8504C5.72377 27.6746 5.625 27.4361 5.625 27.1875V2.8125C5.625 2.56386 5.72377 2.32541 5.89959 2.14959C6.0754 1.97378 6.31386 1.875 6.5625 1.875C6.81114 1.875 7.04959 1.97378 7.22541 2.14959C7.40122 2.32541 7.5 2.56386 7.5 2.8125V27.1875C7.5 27.4361 7.40122 27.6746 7.22541 27.8504C7.04959 28.0262 6.81114 28.125 6.5625 28.125Z" fill="#382922"/>
</svg>
