<svg width="20" height="20" viewBox="0 0 20 20" fill="none" xmlns="http://www.w3.org/2000/svg">
<g clip-path="url(#clip0_84_181)">
<mask id="mask0_84_181" style="mask-type:luminance" maskUnits="userSpaceOnUse" x="0" y="0" width="20" height="20">
<path d="M20 0H0V20H20V0Z" fill="white"/>
</mask>
<g mask="url(#mask0_84_181)">
<path d="M15.1823 0.182641C15.2403 0.124437 15.3093 0.0782581 15.3852 0.04675C15.4611 0.015242 15.5426 -0.000976562 15.6248 -0.000976562C15.707 -0.000976562 15.7884 0.015242 15.8643 0.04675C15.9402 0.0782581 16.0092 0.124437 16.0673 0.182641L19.8173 3.93264C19.8755 3.9907 19.9216 4.05967 19.9531 4.1356C19.9847 4.21153 20.0009 4.29293 20.0009 4.37514C20.0009 4.45735 19.9847 4.53875 19.9531 4.61468C19.9216 4.69061 19.8755 4.75958 19.8173 4.81764L7.31726 17.3176C7.25728 17.3772 7.18584 17.424 7.10726 17.4551L0.857258 19.9551C0.743678 20.0006 0.619252 20.0117 0.499407 19.9871C0.379562 19.9625 0.269567 19.9033 0.183059 19.8168C0.0965504 19.7303 0.0373335 19.6203 0.0127492 19.5005C-0.0118351 19.3806 -0.000705753 19.2562 0.0447576 19.1426L2.54476 12.8926C2.57592 12.814 2.62269 12.7426 2.68226 12.6826L15.1823 0.182641ZM14.0085 3.12514L16.8748 5.99139L18.491 4.37514L15.6248 1.50889L14.0085 3.12514ZM15.991 6.87514L13.1248 4.00889L4.99976 12.1339V12.5001H5.62476C5.79052 12.5001 5.94949 12.566 6.0667 12.6832C6.18391 12.8004 6.24976 12.9594 6.24976 13.1251V13.7501H6.87476C7.04052 13.7501 7.19949 13.816 7.3167 13.9332C7.43391 14.0504 7.49976 14.2094 7.49976 14.3751V15.0001H7.86601L15.991 6.87514ZM3.78976 13.3439L3.65726 13.4764L1.74726 18.2526L6.52351 16.3426L6.65601 16.2101C6.53678 16.1656 6.434 16.0857 6.3614 15.9811C6.2888 15.8766 6.24985 15.7524 6.24976 15.6251V15.0001H5.62476C5.459 15.0001 5.30003 14.9343 5.18282 14.8171C5.06561 14.6999 4.99976 14.5409 4.99976 14.3751V13.7501H4.37476C4.24748 13.75 4.12327 13.7111 4.01873 13.6385C3.91419 13.5659 3.8343 13.4631 3.78976 13.3439Z" fill="#382922"/>
</g>
</g>
<defs>
<clipPath id="clip0_84_181">
<rect width="20" height="20" fill="white"/>
</clipPath>
</defs>
</svg>
