<svg width="40" height="41" viewBox="0 0 40 41" fill="none" xmlns="http://www.w3.org/2000/svg">
<g clip-path="url(#clip0_327_492)">
<path fill-rule="evenodd" clip-rule="evenodd" d="M7.75 28.3848C7.86643 28.2295 8.01741 28.1035 8.19098 28.0167C8.36455 27.9299 8.55594 27.8848 8.75 27.8848H15C15.3315 27.8848 15.6495 28.0165 15.8839 28.2509C16.1183 28.4853 16.25 28.8032 16.25 29.1348C16.25 29.4663 16.1183 29.7842 15.8839 30.0187C15.6495 30.2531 15.3315 30.3848 15 30.3848H9.375L3.75 37.8848H36.25L30.625 30.3848H25C24.6685 30.3848 24.3505 30.2531 24.1161 30.0187C23.8817 29.7842 23.75 29.4663 23.75 29.1348C23.75 28.8032 23.8817 28.4853 24.1161 28.2509C24.3505 28.0165 24.6685 27.8848 25 27.8848H31.25C31.4441 27.8848 31.6354 27.9299 31.809 28.0167C31.9826 28.1035 32.1336 28.2295 32.25 28.3848L39.75 38.3848C39.8893 38.5705 39.9741 38.7913 39.9949 39.0225C40.0158 39.2537 39.9718 39.4862 39.868 39.6938C39.7642 39.9014 39.6046 40.076 39.4072 40.1981C39.2097 40.3201 38.9821 40.3848 38.75 40.3848H1.25C1.01786 40.3848 0.790307 40.3201 0.592837 40.1981C0.395367 40.076 0.235783 39.9014 0.131967 39.6938C0.0281505 39.4862 -0.015796 39.2537 0.00505145 39.0225C0.0258989 38.7913 0.110717 38.5705 0.250001 38.3848L7.75 28.3848Z" fill="#605B56"/>
<path fill-rule="evenodd" clip-rule="evenodd" d="M20 2.88482C19.0151 2.88482 18.0398 3.07881 17.1299 3.45572C16.2199 3.83263 15.3931 4.38508 14.6967 5.08151C14.0003 5.77795 13.4478 6.60475 13.0709 7.51469C12.694 8.42463 12.5 9.3999 12.5 10.3848C12.5 11.3697 12.694 12.345 13.0709 13.2549C13.4478 14.1649 14.0003 14.9917 14.6967 15.6881C15.3931 16.3846 16.2199 16.937 17.1299 17.3139C18.0398 17.6908 19.0151 17.8848 20 17.8848C21.9891 17.8848 23.8968 17.0946 25.3033 15.6881C26.7098 14.2816 27.5 12.3739 27.5 10.3848C27.5 8.39569 26.7098 6.48804 25.3033 5.08151C23.8968 3.67499 21.9891 2.88482 20 2.88482ZM10 10.3848C10.0002 8.46038 10.5556 6.57687 11.5997 4.96029C12.6438 3.34372 14.1322 2.06274 15.8863 1.27108C17.6403 0.479419 19.5856 0.210696 21.4885 0.497157C23.3915 0.783618 25.1715 1.61309 26.6147 2.88606C28.058 4.15902 29.1033 5.82139 29.6252 7.6737C30.1471 9.52601 30.1235 11.4896 29.5571 13.3288C28.9908 15.168 27.9057 16.8047 26.4322 18.0425C24.9587 19.2804 23.1593 20.0668 21.25 20.3073V34.1348C21.25 34.4663 21.1183 34.7843 20.8839 35.0187C20.6495 35.2531 20.3315 35.3848 20 35.3848C19.6685 35.3848 19.3505 35.2531 19.1161 35.0187C18.8817 34.7843 18.75 34.4663 18.75 34.1348V20.3098C16.3324 20.0052 14.1092 18.8284 12.498 17.0004C10.8869 15.1724 9.99856 12.8215 10 10.3848Z" fill="#605B56"/>
</g>
<defs>
<clipPath id="clip0_327_492">
<rect width="40" height="40" fill="white" transform="translate(0 0.384766)"/>
</clipPath>
</defs>
</svg>
