<svg width="40" height="40" viewBox="0 0 40 40" fill="none" xmlns="http://www.w3.org/2000/svg">
<g clip-path="url(#clip0_327_445)">
<path fill-rule="evenodd" clip-rule="evenodd" d="M7.75 28C7.86643 27.8448 8.01741 27.7188 8.19098 27.632C8.36455 27.5452 8.55594 27.5 8.75 27.5H15C15.3315 27.5 15.6495 27.6317 15.8839 27.8661C16.1183 28.1005 16.25 28.4185 16.25 28.75C16.25 29.0815 16.1183 29.3995 15.8839 29.6339C15.6495 29.8683 15.3315 30 15 30H9.375L3.75 37.5H36.25L30.625 30H25C24.6685 30 24.3505 29.8683 24.1161 29.6339C23.8817 29.3995 23.75 29.0815 23.75 28.75C23.75 28.4185 23.8817 28.1005 24.1161 27.8661C24.3505 27.6317 24.6685 27.5 25 27.5H31.25C31.4441 27.5 31.6354 27.5452 31.809 27.632C31.9826 27.7188 32.1336 27.8448 32.25 28L39.75 38C39.8893 38.1857 39.9741 38.4065 39.9949 38.6377C40.0158 38.8689 39.9718 39.1014 39.868 39.309C39.7642 39.5167 39.6046 39.6913 39.4072 39.8133C39.2097 39.9354 38.9821 40 38.75 40H1.25C1.01786 40 0.790307 39.9354 0.592837 39.8133C0.395367 39.6913 0.235783 39.5167 0.131967 39.309C0.0281505 39.1014 -0.015796 38.8689 0.00505145 38.6377C0.0258989 38.4065 0.110717 38.1857 0.250001 38L7.75 28Z" fill="white"/>
<path fill-rule="evenodd" clip-rule="evenodd" d="M20 2.50005C19.0151 2.50005 18.0398 2.69404 17.1299 3.07095C16.2199 3.44786 15.3931 4.00031 14.6967 4.69675C14.0003 5.39319 13.4478 6.21998 13.0709 7.12992C12.694 8.03987 12.5 9.01514 12.5 10C12.5 10.985 12.694 11.9602 13.0709 12.8702C13.4478 13.7801 14.0003 14.6069 14.6967 15.3034C15.3931 15.9998 16.2199 16.5522 17.1299 16.9291C18.0398 17.3061 19.0151 17.5 20 17.5C21.9891 17.5 23.8968 16.7099 25.3033 15.3034C26.7098 13.8968 27.5 11.9892 27.5 10C27.5 8.01093 26.7098 6.10327 25.3033 4.69675C23.8968 3.29023 21.9891 2.50005 20 2.50005ZM10 10C10.0002 8.07561 10.5556 6.19211 11.5997 4.57553C12.6438 2.95895 14.1322 1.67798 15.8863 0.886316C17.6403 0.0946537 19.5856 -0.174069 21.4885 0.112392C23.3915 0.398853 25.1715 1.22833 26.6147 2.50129C28.058 3.77425 29.1033 5.43662 29.6252 7.28893C30.1471 9.14125 30.1235 11.1048 29.5571 12.944C28.9908 14.7832 27.9057 16.4199 26.4322 17.6578C24.9587 18.8956 23.1593 19.682 21.25 19.9226V33.75C21.25 34.0816 21.1183 34.3995 20.8839 34.6339C20.6495 34.8684 20.3315 35 20 35C19.6685 35 19.3505 34.8684 19.1161 34.6339C18.8817 34.3995 18.75 34.0816 18.75 33.75V19.925C16.3324 19.6205 14.1092 18.4436 12.498 16.6156C10.8869 14.7876 9.99856 12.4367 10 10Z" fill="white"/>
</g>
<defs>
<clipPath id="clip0_327_445">
<rect width="40" height="40" fill="white"/>
</clipPath>
</defs>
</svg>
