<svg width="21" height="21" viewBox="0 0 21 21" fill="none" xmlns="http://www.w3.org/2000/svg">
<g clip-path="url(#clip0_196_332)">
<path d="M20.4565 10.2695C20.4565 12.9217 19.403 15.4652 17.5276 17.3406C15.6522 19.216 13.1087 20.2695 10.4565 20.2695C7.80438 20.2695 5.26084 19.216 3.38548 17.3406C1.51011 15.4652 0.456543 12.9217 0.456543 10.2695C0.456543 7.61737 1.51011 5.07383 3.38548 3.19846C5.26084 1.3231 7.80438 0.269531 10.4565 0.269531C13.1087 0.269531 15.6522 1.3231 17.5276 3.19846C19.403 5.07383 20.4565 7.61737 20.4565 10.2695ZM10.8153 7.65203C9.84196 8.05703 7.89779 8.89453 4.98279 10.1645C4.51029 10.352 4.26238 10.5362 4.23904 10.717C4.20154 11.0208 4.58279 11.1408 5.10154 11.3045L5.32029 11.3733C5.83029 11.5395 6.51779 11.7333 6.87404 11.7408C7.19904 11.7491 7.56071 11.6158 7.95904 11.3408C10.6832 9.50245 12.089 8.57328 12.1765 8.55328C12.239 8.53828 12.3265 8.52078 12.384 8.57328C12.4415 8.62578 12.4365 8.72328 12.4303 8.74953C12.3928 8.91078 10.8965 10.3008 10.1228 11.0208C9.88154 11.2458 9.71029 11.4045 9.67529 11.4408C9.59825 11.5196 9.5199 11.5971 9.44029 11.6733C8.96529 12.1308 8.61029 12.4733 9.45904 13.0333C9.86779 13.3033 10.1953 13.5245 10.5215 13.747C10.8765 13.9895 11.2315 14.2308 11.6915 14.5333C11.8082 14.6099 11.9207 14.6879 12.029 14.767C12.4428 15.062 12.8165 15.327 13.2753 15.2845C13.5428 15.2595 13.819 15.0095 13.959 14.2595C14.2903 12.4883 14.9415 8.65203 15.0915 7.07078C15.101 6.93934 15.0955 6.80725 15.0753 6.67703C15.0632 6.57204 15.0124 6.47533 14.9328 6.40578C14.8189 6.32758 14.6834 6.28693 14.5453 6.28953C14.1703 6.29578 13.5915 6.49703 10.8153 7.65203Z" fill="#605B56"/>
</g>
<defs>
<clipPath id="clip0_196_332">
<rect width="20" height="20" fill="white" transform="translate(0.456543 0.269531)"/>
</clipPath>
</defs>
</svg>
