<svg width="20" height="20" viewBox="0 0 20 20" fill="none" xmlns="http://www.w3.org/2000/svg">
<g clip-path="url(#clip0_327_442)">
<path d="M20 10C20 12.6522 18.9464 15.1957 17.0711 17.0711C15.1957 18.9464 12.6522 20 10 20C7.34784 20 4.8043 18.9464 2.92893 17.0711C1.05357 15.1957 0 12.6522 0 10C0 7.34784 1.05357 4.8043 2.92893 2.92893C4.8043 1.05357 7.34784 0 10 0C12.6522 0 15.1957 1.05357 17.0711 2.92893C18.9464 4.8043 20 7.34784 20 10ZM10.3587 7.3825C9.38542 7.7875 7.44125 8.625 4.52625 9.895C4.05375 10.0825 3.80583 10.2667 3.7825 10.4475C3.745 10.7512 4.12625 10.8713 4.645 11.035L4.86375 11.1038C5.37375 11.27 6.06125 11.4637 6.4175 11.4713C6.7425 11.4796 7.10417 11.3463 7.5025 11.0713C10.2267 9.23292 11.6325 8.30375 11.72 8.28375C11.7825 8.26875 11.87 8.25125 11.9275 8.30375C11.985 8.35625 11.98 8.45375 11.9738 8.48C11.9363 8.64125 10.44 10.0312 9.66625 10.7512C9.425 10.9762 9.25375 11.135 9.21875 11.1713C9.1417 11.25 9.06336 11.3275 8.98375 11.4038C8.50875 11.8612 8.15375 12.2038 9.0025 12.7638C9.41125 13.0338 9.73875 13.255 10.065 13.4775C10.42 13.72 10.775 13.9613 11.235 14.2638C11.3517 14.3404 11.4642 14.4183 11.5725 14.4975C11.9863 14.7925 12.36 15.0575 12.8188 15.015C13.0863 14.99 13.3625 14.74 13.5025 13.99C13.8337 12.2188 14.485 8.3825 14.635 6.80125C14.6444 6.66981 14.639 6.53772 14.6187 6.4075C14.6066 6.30251 14.5558 6.2058 14.4763 6.13625C14.3624 6.05804 14.2269 6.0174 14.0887 6.02C13.7137 6.02625 13.135 6.2275 10.3587 7.3825Z" fill="white"/>
</g>
<defs>
<clipPath id="clip0_327_442">
<rect width="20" height="20" fill="white"/>
</clipPath>
</defs>
</svg>
