<svg width="21" height="21" viewBox="0 0 21 21" fill="none" xmlns="http://www.w3.org/2000/svg">
<g clip-path="url(#clip0_196_328)">
<path d="M17.4578 3.1771C16.5411 2.25147 15.4492 1.51766 14.2458 1.01847C13.0425 0.519278 11.7518 0.264705 10.449 0.269601C4.99029 0.269601 0.541543 4.7171 0.536543 10.1771C0.536543 11.9259 0.994043 13.6271 1.85779 15.1334L0.456543 20.2696L5.71154 18.8921C7.16465 19.6849 8.79374 20.0997 10.449 20.0984H10.454C15.914 20.0984 20.3615 15.6509 20.3665 10.1859C20.3677 8.88342 20.1111 7.59365 19.6117 6.39078C19.1123 5.18791 18.3811 4.09572 17.4578 3.1771ZM10.449 18.4209C8.97301 18.4197 7.52432 18.0226 6.25404 17.2709L5.95404 17.0909L2.83654 17.9083L3.66904 14.8671L3.47404 14.5534C2.6488 13.2413 2.21235 11.7221 2.21529 10.1721C2.21529 5.6396 5.91154 1.9421 10.454 1.9421C11.5362 1.94016 12.6081 2.15244 13.6078 2.56671C14.6076 2.98099 15.5154 3.58905 16.279 4.35585C17.0452 5.11979 17.6525 6.02778 18.0662 7.02751C18.4798 8.02724 18.6915 9.09894 18.689 10.1809C18.684 14.7296 14.9878 18.4209 10.449 18.4209ZM14.9678 12.2534C14.7215 12.1296 13.5053 11.5309 13.2765 11.4459C13.049 11.3646 12.8828 11.3221 12.7203 11.5696C12.554 11.8159 12.079 12.3771 11.9365 12.5384C11.794 12.7046 11.6465 12.7234 11.399 12.6009C11.1528 12.4759 10.354 12.2159 9.40904 11.3696C8.67154 10.7134 8.17779 9.90085 8.03029 9.6546C7.88779 9.4071 8.01654 9.2746 8.14029 9.15085C8.24904 9.04085 8.38654 8.86085 8.51029 8.71835C8.63529 8.57585 8.67654 8.47085 8.75779 8.30585C8.83904 8.13835 8.80029 7.99585 8.73904 7.8721C8.67654 7.74835 8.18279 6.5271 7.97404 6.0346C7.77404 5.54835 7.57029 5.61585 7.41779 5.6096C7.27529 5.60085 7.10904 5.60085 6.94279 5.60085C6.81726 5.60405 6.69374 5.63312 6.57996 5.68624C6.46618 5.73937 6.36459 5.81541 6.28154 5.9096C6.05404 6.1571 5.41779 6.75585 5.41779 7.9771C5.41779 9.19835 6.30529 10.3721 6.43029 10.5384C6.55279 10.7046 8.17279 13.2034 10.659 14.2783C11.2465 14.5346 11.709 14.6859 12.0703 14.8008C12.664 14.9909 13.2003 14.9621 13.6278 14.9009C14.1028 14.8284 15.0915 14.3009 15.3003 13.7221C15.5053 13.1421 15.5053 12.6471 15.4428 12.5434C15.3815 12.4384 15.2153 12.3771 14.9678 12.2534Z" fill="#605B56"/>
</g>
<defs>
<clipPath id="clip0_196_328">
<rect width="20" height="20" fill="white" transform="translate(0.456543 0.269531)"/>
</clipPath>
</defs>
</svg>
