<svg width="20" height="20" viewBox="0 0 20 20" fill="none" xmlns="http://www.w3.org/2000/svg">
<g clip-path="url(#clip0_48_47)">
<path d="M17.0012 2.90757C16.0845 1.98194 14.9926 1.24813 13.7893 0.748936C12.586 0.249746 11.2953 -0.00482603 9.9925 6.92813e-05C4.53375 6.92813e-05 0.085 4.44757 0.08 9.90757C0.08 11.6563 0.5375 13.3576 1.40125 14.8638L0 20.0001L5.255 18.6226C6.70811 19.4154 8.33719 19.8302 9.9925 19.8288H9.9975C15.4575 19.8288 19.905 15.3813 19.91 9.91632C19.9111 8.61389 19.6546 7.32411 19.1551 6.12125C18.6557 4.91838 17.9245 3.82619 17.0012 2.90757ZM9.9925 18.1513C8.51647 18.1502 7.06778 17.753 5.7975 17.0013L5.4975 16.8213L2.38 17.6388L3.2125 14.5976L3.0175 14.2838C2.19226 12.9717 1.75581 11.4526 1.75875 9.90257C1.75875 5.37007 5.455 1.67257 9.9975 1.67257C11.0797 1.67063 12.1515 1.88291 13.1513 2.29718C14.151 2.71145 15.0589 3.31952 15.8225 4.08632C16.5886 4.85025 17.196 5.75825 17.6096 6.75798C18.0232 7.75771 18.2349 8.82941 18.2325 9.91132C18.2275 14.4601 14.5312 18.1513 9.9925 18.1513ZM14.5113 11.9838C14.265 11.8601 13.0487 11.2613 12.82 11.1763C12.5925 11.0951 12.4262 11.0526 12.2638 11.3001C12.0975 11.5463 11.6225 12.1076 11.48 12.2688C11.3375 12.4351 11.19 12.4538 10.9425 12.3313C10.6962 12.2063 9.8975 11.9463 8.9525 11.1001C8.215 10.4438 7.72125 9.63132 7.57375 9.38507C7.43125 9.13757 7.56 9.00507 7.68375 8.88132C7.7925 8.77132 7.93 8.59132 8.05375 8.44882C8.17875 8.30632 8.22 8.20132 8.30125 8.03632C8.3825 7.86882 8.34375 7.72632 8.2825 7.60257C8.22 7.47882 7.72625 6.25757 7.5175 5.76507C7.3175 5.27882 7.11375 5.34632 6.96125 5.34007C6.81875 5.33132 6.6525 5.33132 6.48625 5.33132C6.36072 5.33451 6.2372 5.36358 6.12342 5.41671C6.00963 5.46984 5.90804 5.54588 5.825 5.64007C5.5975 5.88757 4.96125 6.48632 4.96125 7.70757C4.96125 8.92882 5.84875 10.1026 5.97375 10.2688C6.09625 10.4351 7.71625 12.9338 10.2025 14.0088C10.79 14.2651 11.2525 14.4163 11.6138 14.5313C12.2075 14.7213 12.7437 14.6926 13.1712 14.6313C13.6462 14.5588 14.635 14.0313 14.8438 13.4526C15.0487 12.8726 15.0488 12.3776 14.9862 12.2738C14.925 12.1688 14.7587 12.1076 14.5113 11.9838Z" fill="#382922"/>
</g>
<defs>
<clipPath id="clip0_48_47">
<rect width="20" height="20" fill="white"/>
</clipPath>
</defs>
</svg>
