<svg width="87" height="73" viewBox="0 0 87 73" fill="none" xmlns="http://www.w3.org/2000/svg">
<path d="M30.082 2C32.1682 7.31978 33.0182 13.6924 33.0182 19.4076C33.0182 20.9816 33.072 22.5208 33.1813 24.0915C33.2874 25.6167 33.0881 27.3656 33.4609 28.857C33.6115 29.4591 33.7341 30.0222 33.8688 30.6281C33.968 31.0748 34.1862 31.1524 34.5912 31.1524C35.6848 31.1524 35.7447 30.4891 35.7447 29.4746" stroke="#605B56" stroke-width="3" stroke-linecap="round"/>
<path d="M40.988 14.5838C44.2769 14.4272 52.5231 10.9274 52.5231 17.287C52.5231 17.955 52.5231 18.623 52.5231 19.291C52.5231 21.0517 52.2566 22.3315 51.8124 24.01C51.5563 24.9774 51.788 25.9804 51.6376 26.9578C51.4736 28.0235 51.2647 29.0254 51.2647 30.1038" stroke="#605B56" stroke-width="3" stroke-linecap="round"/>
<path d="M51.4744 22.973C49.1519 20.8292 46.3474 18.9882 43.1668 18.9882C41.961 18.9882 40.3082 19.2256 39.683 20.433C38.907 21.9313 38.4712 24.3001 38.4712 25.9791C38.4712 27.1282 38.5059 28.3236 39.112 29.3465C40.1881 31.1624 43.9779 30.7221 45.8001 30.4184C47.0622 30.2081 50.0063 28.9881 50.0063 27.3773" stroke="#605B56" stroke-width="3" stroke-linecap="round"/>
<path d="M56.5079 14.374C57.4049 15.6767 58.0231 17.1335 58.9198 18.4288C59.3944 19.1143 60.0287 19.4485 60.2947 20.2464C60.6433 21.2923 61.5711 22.0996 62.0774 23.0661C62.8721 24.5833 64.3578 25.6694 65.1068 27.1675" stroke="#605B56" stroke-width="3" stroke-linecap="round"/>
<path d="M70.1404 13.3254C69.0024 17.024 68.0127 20.8933 66.575 24.4877C66.2111 25.3974 65.7492 26.2091 65.4215 27.1559C65.0055 28.3577 64.4467 29.6445 64.2679 30.8961C64.2145 31.2704 63.7083 31.2244 63.6388 31.5719C63.5425 32.0534 63.4915 32.5798 63.3125 33.04C62.9736 33.9115 62.616 34.7682 62.2755 35.6383C61.9608 36.4427 61.4151 36.9879 61.0754 37.724C60.8475 38.2177 60.5536 38.4694 60.2831 38.8076C59.9993 39.1623 59.4402 39.1302 59.2344 39.5416" stroke="#605B56" stroke-width="3" stroke-linecap="round"/>
<path d="M27.4713 40.3074C27.1785 40.2708 26.6324 39.3427 26.3761 39.0956C25.6989 38.4426 24.9119 38.0226 24.2322 37.3828C23.3803 36.581 21.5415 36.1128 20.3638 36.1128C19.6313 36.1128 17.8597 35.7935 17.2995 36.2293C16.8618 36.5697 16.4233 36.5381 16.1925 37.1148C16.0311 37.5183 15.9065 37.9099 15.7265 38.3149C15.0517 39.8332 15.2483 43.4785 16.1459 44.8748C17.1743 46.4744 19.0299 46.9734 20.6202 47.9275C21.8966 48.6934 23.2617 49.1056 24.4885 49.9549C26.4078 51.2837 27.5403 53.0594 27.8791 55.4312C28.0994 56.9729 27.8196 58.5837 27.3665 60.0336C26.9623 61.3269 24.5657 62.397 23.2651 62.5271C21.9623 62.6573 20.7369 62.7484 19.4084 62.7484C18.9197 62.7484 17.4956 62.9967 17.1829 62.6319C17.0577 62.4858 16.3156 61.9284 16.1459 61.9095C15.0692 61.7899 14.4734 60.0326 14.0486 59.183C13.7284 58.5425 13.7372 57.7786 13.5243 57.0974C13.3407 56.5098 13 56.2814 13 55.6176" stroke="#605B56" stroke-width="3" stroke-linecap="round"/>
<path d="M36.28 46.1798C36.28 48.7867 36.4897 51.3761 36.4897 53.9864C36.4897 55.0351 36.4897 56.0837 36.4897 57.1324C36.4897 58.3244 36.0703 59.4677 36.0703 60.6511C36.0703 64.091 35.8605 67.6473 35.8605 71.1376" stroke="#605B56" stroke-width="3" stroke-linecap="round"/>
<path d="M37.3287 49.116C37.6789 47.8317 40.0544 46.1663 41.3019 45.9584C42.8739 45.6964 44.4134 44.6808 46.0907 45.1777C48.0794 45.767 49.7147 46.742 51.0659 48.3936C52.304 49.9067 52.0097 51.518 52.0097 53.4038C52.0097 55.3092 51.5015 56.867 50.6581 58.5538C49.7463 60.3775 47.2643 61.0478 45.7178 62.0144C45.0671 62.421 43.8103 62.2272 43.0729 62.3406C42.1136 62.4882 41.2564 62.6663 40.3115 62.3756C38.7256 61.8876 37.8145 60.5077 36.6995 59.3927" stroke="#605B56" stroke-width="3" stroke-linecap="round"/>
<path d="M58.0918 49.3257C57.2891 49.9501 57.5034 52.3434 57.3578 53.2756C57.2436 54.0062 57.0713 54.8404 57.0432 55.571C57.0006 56.6793 57.1935 57.4279 57.4627 58.4373C58.0634 60.69 61.4704 62.1192 63.5914 62.1192C65.7362 62.1192 68.1837 62.4518 70.0581 61.2803C72.1518 59.9717 72.9826 57.794 72.9826 55.3146C72.9826 54.2818 72.5632 53.4428 72.5632 52.46C72.5632 51.2305 71.9549 49.4876 71.3048 48.4402C70.1329 46.5521 68.9874 45.1311 66.5742 45.1311C64.2219 45.1311 62.0769 44.9845 59.8862 45.9234C59.3298 46.1619 58.5113 46.6919 58.5113 47.4381C58.5113 47.9325 58.3016 49.4006 58.3016 48.9062" stroke="#605B56" stroke-width="3" stroke-linecap="round"/>
<path d="M80.7427 39.049C80.7427 43.8996 80.9524 48.7704 80.9524 53.6368C80.9524 55.3108 80.9524 56.9847 80.9524 58.6587C80.9524 59.1863 80.6199 62.2676 81.1621 62.5387" stroke="#605B56" stroke-width="3" stroke-linecap="round"/>
<path d="M76.7578 46.809C79.6391 46.809 82.4794 46.3895 85.3567 46.3895" stroke="#605B56" stroke-width="3" stroke-linecap="round"/>
<path d="M23.1609 7.24327C22.1205 6.87606 21.0624 6.66188 19.9917 6.40436C18.601 6.06988 17.2975 5.44153 15.8903 5.18093C14.5481 4.93238 13.1708 4.84771 11.8472 4.51679C9.82175 4.01044 8.11902 4.68531 6.54567 6.07811C4.55972 7.83617 3.02221 10.8553 2.30447 13.4186C1.69569 15.5929 2.18796 18.4478 2.18796 20.6776C2.18796 23.4377 3.91008 25.4308 5.49702 27.4938C6.19678 28.4035 7.1186 28.7812 8.1769 29.1484C10.1579 29.8356 12.5594 30.0483 14.6436 30.2087C15.6916 30.2893 17.3517 30.6217 18.3837 30.2669C19.655 29.8299 20.9535 28.4172 21.9025 27.4938C22.4471 26.964 22.9607 25.7996 23.5804 25.4897" stroke="#605B56" stroke-width="3" stroke-linecap="round"/>
</svg>
